<svg xmlns="http://www.w3.org/2000/svg" style="display: none;">

    <symbol id="icon-account-group" viewBox="0 0 512 512">
      <path d="m256 301l0-41c7-7 19-24 21-60 10-5 16-16 16-30 0-12-4-22-12-28 7-13 18-37 12-60-7-28-48-39-81-39-29 0-65 8-77 30-12-1-20 2-26 9-15 16-8 46-4 62 1 2 2 4 2 5l0 42c0 41 24 63 42 71l0 39c-8 3-17 7-26 10-56 20-104 37-112 64-11 31-11 102-11 105 0 6 5 11 11 11l384 0c6 0 10-5 10-11 0-3 0-74-10-105-11-31-69-48-139-74z m-235 168c1-20 3-66 10-88 5-16 57-35 99-50 12-4 23-8 34-12 4-2 7-6 7-10l0-54c0-4-3-9-8-10-1 0-35-12-35-54l0-42c0-3-1-5-2-11-2-8-9-34-2-41 3-4 11-3 15-2 6 1 11-2 13-8 3-13 29-22 60-22 31 0 57 9 60 22 5 17-6 37-11 48-3 6-5 10-5 14 0 5 5 10 11 10 3 0 5 6 5 11 0 4-2 11-5 11-6 0-11 4-11 10 0 43-16 55-16 55-3 2-5 6-5 9l0 54c0 4 2 8 7 10 51 19 125 41 132 62 8 22 9 68 10 88l-363 0z m480-94c-8-25-49-51-138-84l0-20c7-7 19-25 21-61 4-2 7-5 10-9 4-5 6-13 6-20 0-13-5-23-13-28 7-15 19-41 13-64-4-15-21-31-40-39-19-7-38-6-54 5-5 3-6 10-3 15 3 4 10 6 15 3 12-9 25-6 34-3 15 6 25 18 27 24 4 17-6 40-12 52-3 6-4 10-4 13 0 3 1 6 3 8 2 2 4 3 7 3 4 0 6 6 6 11 0 3-1 6-3 8-1 2-2 2-3 2-6 0-10 5-10 11 0 43-17 55-17 55-3 2-5 5-5 9l0 32c0 4 3 8 7 10 83 31 127 56 133 73 7 22 9 68 10 88l-43 0c-6 0-11 5-11 11 0 6 5 11 11 11l53 0c6 0 11-5 11-11 0-3 0-74-11-105z"/>
    </symbol>

    <symbol id="icon-arrow-down" viewBox="0 0 512 512">
      <path d="m508 109c-4-4-11-3-15 1l-237 269-237-269c-4-4-11-5-15-1-5 4-5 11-1 15l245 278c2 2 5 3 8 3 3 0 6-1 8-3l245-278c4-4 4-11-1-15z"/>
    </symbol>

    <symbol id="icon-arrow-left" viewBox="0 0 512 512">
      <path d="m133 256l269-237c4-4 5-11 1-15-4-5-11-5-15-1l-278 245c-2 2-3 5-3 8 0 3 1 6 3 8l278 245c2 2 4 3 7 3 3 0 6-1 8-4 4-4 3-11-1-15z"/>
    </symbol>

    <symbol id="icon-arrow-right" viewBox="0 0 512 512">
      <path d="m402 248l-278-245c-4-4-11-4-15 1-4 4-3 11 1 15l269 237-269 237c-4 4-5 11-1 15 2 3 5 4 8 4 3 0 5-1 7-3l278-245c2-2 3-5 3-8 0-3-1-6-3-8z"/>
    </symbol>
    <symbol id="icon-close-left" viewBox="0 0 17 11">
      <path d="M15.7596 0H6.34643C5.70388 0 5.18298 0.43325 5.18298 0.967684C5.18298 1.50212 5.70388 1.93537 6.34643 1.93537H15.7596C16.4022 1.93537 16.9231 1.50212 16.9231 0.967684C16.9231 0.43325 16.4022 0 15.7596 0ZM15.7596 4.53232H1.16345C0.520897 4.53232 0 4.96557 0 5.5C0 6.03443 0.520897 6.46768 1.16345 6.46768H15.7596C16.4022 6.46768 16.9231 6.03443 16.9231 5.5C16.9231 4.96557 16.4022 4.53232 15.7596 4.53232ZM6.34643 9.06463H15.7596C16.4022 9.06463 16.9231 9.49788 16.9231 10.0323C16.9231 10.5668 16.4022 11 15.7596 11H6.34643C5.70388 11 5.18298 10.5668 5.18298 10.0323C5.18298 9.49788 5.70388 9.06463 6.34643 9.06463Z"/>
    </symbol>
    <symbol id="icon-site-logo" viewBox="0 0 48 48">
      <path  d="M 4 13 h 10 v 29.016 c 0 0.891 -1.077 1.337 -1.707 0.707 l -7.815 -9.163 C 4.17 33.199 4 32.739 4 32.263 V 13 Z" />
      <path fill="#ef5350" d="M 34 13 h 10 v 19.263 c 0 0.476 -0.17 0.936 -0.478 1.298 l -7.815 9.163 C 35.077 43.353 34 42.907 34 42.016 V 13 Z" />
      <path fill="#a5d6a7" d="M 12.706 5.266 L 24 16 v 15 L 4 13 l 7.323 -7.704 C 11.702 4.918 12.311 4.905 12.706 5.266 Z" />
      <path fill="#ffecb3" d="M 36.249 5.255 L 24 16 v 15 l 20 -18 l -6.352 -7.64 C 37.288 4.949 36.666 4.902 36.249 5.255 Z" />
    </symbol>
    <symbol id="icon-open-right" viewBox="0 0 17 11">
      <path d="M1.16322 0H10.5764C11.219 0 11.7399 0.43325 11.7399 0.967684C11.7399 1.50212 11.219 1.93537 10.5764 1.93537H1.16322C0.520672 1.93537 -0.000225067 1.50212 -0.000225067 0.967684C-0.000225067 0.43325 0.520672 0 1.16322 0ZM1.16322 4.53232H15.7594C16.402 4.53232 16.9229 4.96557 16.9229 5.5C16.9229 6.03443 16.402 6.46768 15.7594 6.46768H1.16322C0.520672 6.46768 -0.000225067 6.03443 -0.000225067 5.5C-0.000225067 4.96557 0.520672 4.53232 1.16322 4.53232ZM10.5764 9.06463H1.16322C0.520672 9.06463 -0.000225067 9.49788 -0.000225067 10.0323C-0.000225067 10.5668 0.520672 11 1.16322 11H10.5764C11.219 11 11.7399 10.5668 11.7399 10.0323C11.7399 9.49788 11.219 9.06463 10.5764 9.06463Z"/>
    </symbol>
    <symbol id="icon-user" x="0px" y="0px" viewBox="0 0 122.9 122.9"><g><path d="M61.4,0c17,0,32.3,6.9,43.4,18c11.1,11.1,18,26.5,18,43.4c0,17-6.9,32.3-18,43.4c-11.1,11.1-26.5,18-43.4,18 s-32.3-6.9-43.4-18C6.9,93.8,0,78.4,0,61.4c0-17,6.9-32.3,18-43.4C29.1,6.9,44.5,0,61.4,0L61.4,0z M41.3,54.3c-1.1,0-2,0.3-2.5,0.7 c-0.3,0.2-0.6,0.5-0.7,0.8c-0.2,0.4-0.3,0.8-0.2,1.4c0,1.5,0.8,3.5,2.4,5.8l0,0l0,0l5,8c2,3.2,4.1,6.5,6.8,8.9 c2.5,2.3,5.6,3.9,9.6,3.9c4.4,0,7.6-1.6,10.2-4.1c2.7-2.5,4.9-6,7-9.5l5.7-9.3c1.1-2.4,1.4-4,1.2-5c-0.1-0.6-0.8-0.8-1.8-0.9 c-0.2,0-0.5,0-0.7,0c-0.3,0-0.5,0-0.8,0c-0.2,0-0.3,0-0.4,0c-0.5,0-1,0-1.6-0.1l1.9-8.6c-14.4,2.3-25.2-8.4-40.4-2.1L43,54.4 C42.4,54.4,41.8,54.4,41.3,54.3L41.3,54.3L41.3,54.3L41.3,54.3z M18.8,95.7c7.1-2.5,19.6-3.8,25.4-7.7c1-1.3,2.1-2.9,3.1-4.3 c0.6-0.9,1.1-1.7,1.6-2.3c0.1-0.1,0.2-0.2,0.3-0.3c-2.4-2.5-4.4-5.5-6.3-8.5l-5-8C36,61.8,35,59.3,35,57.3c0-1,0.1-1.9,0.5-2.6 c0.4-0.8,1-1.5,1.7-2c0.4-0.2,0.8-0.5,1.2-0.6c-0.3-4.3-0.4-9.8-0.2-14.4c0.1-1.1,0.3-2.2,0.6-3.3c1.3-4.6,4.5-8.3,8.5-10.8 c1.4-0.9,2.9-1.6,4.6-2.2c2.9-1.1,1.5-5.5,4.7-5.6c7.5-0.2,19.8,6.2,24.6,11.4c2.8,3,4.6,7,4.9,12.3l-0.3,13.1l0,0 c1.4,0.4,2.3,1.3,2.7,2.7c0.4,1.6,0,3.8-1.4,6.9l0,0c0,0.1-0.1,0.1-0.1,0.2l-5.7,9.4c-2.2,3.6-4.5,7.3-7.5,10.1L73.7,82l0,0 c0.4,0.5,0.8,1.1,1.2,1.7c0.8,1.1,1.6,2.4,2.5,3.6c5.3,4.5,19.3,5.9,26.7,8.6c7.6-9.4,12.1-21.4,12.1-34.4c0-15.1-6.1-28.8-16-38.7 c-9.9-9.9-23.6-16-38.7-16s-28.8,6.1-38.7,16c-9.9,9.9-16,23.6-16,38.7C6.7,74.4,11.2,86.3,18.8,95.7L18.8,95.7z M77,90.5 c-1.4-1.6-2.8-3.7-4.1-5.5c-0.4-0.5-0.7-1.1-1.1-1.5c-2.7,2-6,3.3-10.3,3.3c-4.5,0-8-1.6-10.9-4.1c0,0,0,0.1-0.1,0.1 c-0.5,0.7-1,1.4-1.6,2.3c-1.1,1.6-2.3,3.3-3.4,4.8C45.6,100,71.1,106,77,90.5L77,90.5z"/></g></symbol>
</svg>