<?xml version="1.0" standalone="no"?>
<!DOCTYPE svg PUBLIC "-//W3C//DTD SVG 20010904//EN"
 "http://www.w3.org/TR/2001/REC-SVG-20010904/DTD/svg10.dtd">
<svg version="1.0" xmlns="http://www.w3.org/2000/svg"
 width="1280.000000pt" height="1280.000000pt" viewBox="0 0 1280.000000 1280.000000"
 preserveAspectRatio="xMidYMid meet">
<metadata>
Created by potrace 1.15, written by Peter Selinger 2001-2017
</metadata>
<g transform="translate(0.000000,1280.000000) scale(0.100000,-0.100000)"
fill="#000000" stroke="none">
<path d="M5780 10734 c-783 -47 -1353 -323 -1881 -911 l-74 -83 -145 -15
c-1369 -149 -2518 -1014 -3059 -2301 -299 -713 -377 -1546 -220 -2339 160
-809 572 -1576 1142 -2132 520 -506 1163 -846 1827 -967 216 -39 349 -50 600
-50 779 1 1403 234 1950 727 484 436 935 1207 1175 2008 84 282 253 968 360
1464 230 1066 337 1465 483 1795 88 199 116 259 123 260 7 0 13 -31 33 -195
43 -340 57 -777 57 -1798 0 -461 -3 -842 -6 -848 -4 -5 -3 -130 1 -278 l7
-269 45 -12 c25 -6 48 -7 52 -3 18 21 210 330 312 503 63 107 219 384 348 615
478 863 640 1137 873 1484 125 186 302 424 386 521 90 103 233 251 239 246 2
-3 -16 -38 -40 -78 -151 -249 -298 -555 -452 -941 -457 -1145 -720 -2114 -811
-2982 -23 -214 -31 -648 -15 -815 38 -417 153 -763 349 -1047 279 -405 636
-604 1086 -604 215 0 350 28 510 106 153 74 303 211 394 359 21 33 22 42 12
75 -10 34 -18 42 -88 74 l-78 36 -25 -32 c-94 -121 -230 -236 -333 -282 -215
-94 -492 -60 -675 84 -160 127 -279 360 -334 657 -20 107 -22 152 -22 434 0
340 10 474 65 870 90 648 258 1427 485 2250 427 1546 849 2427 1304 2728 145
96 361 186 592 247 l123 32 2 94 c2 94 2 94 -28 118 l-30 24 -82 -18 c-451
-96 -968 -323 -1372 -603 -541 -375 -977 -826 -1398 -1447 -188 -278 -525
-836 -640 -1060 -53 -103 -52 -105 -51 132 3 667 -39 1313 -111 1718 -196
1098 -604 1742 -1348 2130 -310 162 -633 256 -1027 301 -128 14 -474 25 -590
18z m330 -299 c851 -120 1497 -719 1798 -1666 60 -189 61 -168 -2 -301 -131
-277 -268 -625 -386 -977 -38 -113 -191 -615 -340 -1116 -291 -979 -350 -1166
-470 -1490 -138 -371 -320 -769 -482 -1055 -314 -554 -702 -996 -1108 -1263
-554 -363 -1237 -460 -1955 -277 -313 80 -637 226 -927 419 -225 150 -356 258
-543 445 -302 302 -515 605 -710 1010 -316 654 -427 1369 -329 2126 51 399
169 782 359 1165 198 400 431 722 741 1025 417 408 862 675 1428 859 124 41
397 111 430 111 11 0 -3 -38 -58 -147 -236 -473 -333 -895 -306 -1328 37 -579
236 -1036 630 -1448 279 -292 616 -481 996 -558 152 -31 499 -39 665 -15 381
55 722 220 1022 494 27 24 51 42 54 39 9 -10 -38 -197 -89 -355 -188 -585
-520 -1061 -978 -1406 -449 -338 -965 -503 -1458 -466 -260 20 -444 69 -657
175 -175 88 -295 175 -451 330 -183 182 -291 339 -380 552 -160 382 -183 834
-63 1248 21 72 21 74 3 106 -17 28 -31 35 -114 60 -52 15 -95 27 -96 26 -9 -9
-70 -242 -90 -342 -48 -247 -53 -454 -18 -705 83 -589 427 -1115 937 -1432
244 -152 552 -260 857 -300 122 -16 465 -15 595 1 488 61 943 255 1306 559
493 413 861 1109 974 1840 26 169 45 354 45 440 0 49 6 63 67 160 143 228 263
501 363 822 l50 163 -20 32 c-19 30 -27 34 -111 49 -50 9 -93 15 -95 13 -2 -1
-19 -59 -39 -127 -42 -145 -127 -365 -195 -500 -44 -88 -48 -92 -53 -65 -46
234 -63 312 -92 418 -94 344 -260 670 -481 947 -203 254 -521 518 -830 690
-351 195 -701 293 -1149 323 l-176 12 110 99 c411 371 832 558 1346 600 90 7
368 -4 475 -19z m-1530 -960 c646 -101 1202 -452 1632 -1031 288 -388 408
-745 438 -1303 l11 -193 -47 -57 c-82 -97 -296 -303 -388 -372 -285 -215 -560
-312 -916 -326 -386 -15 -715 88 -1040 327 -114 84 -320 294 -400 408 -307
438 -429 955 -354 1500 46 338 184 685 397 1001 l49 74 257 -6 c162 -3 294
-11 361 -22z"/>
</g>
</svg>
